<?xml version="1.0" standalone="no"?>
<!DOCTYPE svg PUBLIC "-//W3C//DTD SVG 1.1//EN" "http://www.w3.org/Graphics/SVG/1.1/DTD/svg11.dtd" >
<!--
2014-3-19: Created.
-->
<svg xmlns="http://www.w3.org/2000/svg">
<metadata>
Created by FontForge 20120731 at Wed Mar 19 12:45:50 2014
 By Welch Canavan
Created by Welch Canavan with FontForge 2.0 (http://fontforge.sf.net)
</metadata>
<defs>
<font id="icongs" horiz-adv-x="512" >
  <font-face 
    font-family="icongs"
    font-weight="500"
    font-stretch="normal"
    units-per-em="512"
    panose-1="2 0 6 9 0 0 0 0 0 0"
    ascent="448"
    descent="-64"
    bbox="-0.12793 -64 512.48 448.048"
    underline-thickness="25.6"
    underline-position="-51.2"
    unicode-range="U+00D7-1F50D"
  />
    <missing-glyph />
    <glyph glyph-name="u1F4AC" unicode="&#x1f4ac;" 
d="M512 426.704v-341.328h-112.416l-34.4961 -127.984l-93.4883 127.984h-271.6v341.328h512z" />
    <glyph glyph-name="uniF123" unicode="&#xf123;" 
d="M160 448h131.44v-2.27246c0 -14.8799 -26.3047 -17.1357 -44.5762 -20.5752c-5.72852 0 -18.3047 -1.13672 -21.7285 -3.44043c33.1523 -17.1357 38.8643 -45.6963 38.8643 -86.8477c0 -48 -18.2881 -73.1523 -38.8643 -90.3047
c-11.4395 -11.4238 -21.6953 -19.4072 -21.6953 -30.832c0 -11.4395 13.6953 -22.8633 28.5596 -36.5918c25.1523 -21.6797 59.4561 -51.4238 59.4561 -101.695c0 -52.5762 -22.8799 -90.3203 -66.3203 -110.864c-34.3037 -17.1357 -70.8633 -19.4238 -85.6953 -19.4238
c-2.32031 0 -3.44043 1.13574 -4.57617 1.13574c0 0 -1.12012 -1.13574 -2.28809 -1.13574c-21.7119 0.015625 -132.576 5.71191 -132.576 106.304c0 98.3037 119.984 106.271 156.576 106.271h1.12012c-20.5928 28.5928 -17.1523 57.1523 -17.1523 57.1523h-7.98438
c-13.6953 0 -40 2.30371 -62.8477 17.1357c-28.5762 17.1523 -42.2881 48 -42.2881 91.4248c0.0166016 120.016 131.424 124.56 132.576 124.56zM155.424 131.44h-9.12012c-25.168 -1.12012 -48.0312 -11.4404 -65.1514 -26.3047
c-16 -14.832 -25.1523 -34.2715 -24 -53.6797c3.43945 -40 45.7119 -62.8643 98.2881 -59.4404c51.4395 3.44043 86.8633 33.1523 83.4395 73.1367c-2.32031 38.8799 -34.3037 66.2881 -83.4561 66.2881zM134.848 412.592c-3.42383 0 -6.86328 0 -11.4238 -1.15137
c-14.8477 -4.56055 -26.2881 -17.1367 -33.1514 -35.4248c-5.68066 -18.3037 -6.84863 -37.7119 -1.12012 -60.5596c10.2881 -38.8643 38.8477 -67.4404 67.4395 -67.4404c3.42383 0 6.84863 0 10.2881 1.15234c32.0166 9.10449 51.4404 56 37.7119 101.696
c-13.7598 48.0322 -35.4561 61.7275 -69.7441 61.7275zM512 251.44v-53.6807h-85.7119v-85.7598h-53.6963v85.7441h-85.7441v53.6797h85.7441v85.7119h53.6963v-85.6953h85.7119z" />
    <glyph glyph-name="uniF125" unicode="&#xf125;" 
d="M512.464 368.336v-86.8477h-129.904c-28.624 40.416 -73.8877 65.4395 -126.336 65.4395c-52.4795 0 -98.9434 -25.0078 -126.352 -65.4395h-129.872v86.8477c0 44 35.6963 79.6641 79.8076 79.6641h352.784c44.1279 0 79.8721 -35.6641 79.8721 -79.6641z
M407.552 222.016h104.929v-204.575c0 -43.9844 -35.7441 -80.8486 -79.8721 -80.8486h-352.801c-44.1113 0 -79.8076 36.8643 -79.8076 80.8486v204.575h103.664c-1.2002 -9.51953 -2.33594 -19.04 -2.33594 -29.6953c0 -84.4639 69.0879 -154.641 154.912 -154.641
c84.6074 0 154.896 70.1768 154.896 154.641c-0.0322266 10.6553 -1.15137 20.1758 -3.58398 29.6953zM256.224 97.1201c-52.4795 0 -95.3594 42.832 -95.3594 95.1836c0 53.4883 42.8799 95.1367 95.3594 95.1367c52.4482 0 95.3604 -41.6641 95.3604 -95.1367
c0 -52.3516 -42.9121 -95.1836 -95.3604 -95.1836zM470.72 392.112c0 8.33594 -5.93555 14.2881 -14.2881 14.2881h-42.9121c-7.11914 0 -14.3359 -5.95215 -14.3359 -14.2881v-42.8486c0 -7.10352 7.2168 -14.2715 14.3359 -14.2715h42.9121
c8.33594 0 14.2881 7.15137 14.2881 14.2715v42.8486z" />
    <glyph glyph-name="uniF12E" unicode="&#xf12e;" 
d="M58.4639 0h-58.1279l255.664 383.904l256 -383.904h-58.4316l-197.568 298.784z" />
    <glyph glyph-name="uniF11C" unicode="&#xf11c;" 
d="M408 234.672h61.3438v-298.672h-426.672v298.672h61.3281v61.3281c0 83.8076 68.1924 152 152 152s152 -68.1924 152 -152v-61.3281zM152 296v-61.3281h208v61.3281c0 57.3438 -46.6562 104 -104 104s-104 -46.6562 -104 -104z" />
    <glyph glyph-name="uniF122" unicode="&#xf122;" 
d="M459.056 311.216v-13.3438c0 -138.96 -105.6 -297.872 -297.92 -297.872c-60.0156 0 -114.464 16.6396 -161.136 46.6562c7.77637 -1.08789 16.6562 -1.08789 25.5361 -1.08789c48.9443 0 94.5117 16.6875 130.032 44.4473
c-45.5527 1.10449 -84.4482 31.1201 -97.792 73.3604c5.56738 -2.20801 12.2393 -2.20801 18.9277 -2.20801c9.98438 0 18.8643 1.08789 27.8076 3.32812c-47.8398 10.0156 -83.4395 52.2402 -83.4395 103.376v1.10352c13.3594 -7.77539 30.0156 -12.2393 46.752 -13.3271
c-27.8242 18.8955 -46.7686 51.1357 -46.7686 87.792c0 18.9277 5.58398 36.6875 14.4639 52.2715c52.2402 -63.3438 128.977 -105.616 216.769 -108.944c-2.22363 6.67285 -3.32812 15.5684 -3.32812 23.3447c0 57.792 46.6719 104.464 105.616 104.464
c30 0 56.7041 -12.208 75.5674 -32.2402c24.4482 4.46387 46.6885 13.3604 66.7041 24.4639c-7.75977 -24.4639 -24.4473 -44.4482 -45.5674 -57.8076c21.1035 3.34375 41.0879 8.91211 60.0156 16.6875c-14.4482 -21.1035 -32.2236 -38.8955 -52.2402 -54.4639z" />
    <glyph glyph-name="uniF11F" unicode="&#xf11f;" 
d="M384 149.344c58.9121 0 106.672 -47.7598 106.656 -106.672c0 -58.9277 -47.7441 -106.672 -106.656 -106.672c-58.9277 0 -106.672 47.7441 -106.656 106.672c0 11.0244 1.66406 21.6484 4.76855 31.6484l-76.5127 44.6396
c-19.4561 -20.6719 -46.9912 -33.6484 -77.5996 -33.6484c-58.9121 0 -106.672 47.7607 -106.672 106.688c0 58.9121 47.7598 106.672 106.672 106.672c30.6084 0 58.1279 -12.9756 77.584 -33.6318l76.5283 44.6396c-3.12012 10 -4.78418 20.6406 -4.78418 31.6641
c0 58.9121 47.7598 106.656 106.672 106.656s106.672 -47.7441 106.672 -106.656c0 -58.9434 -47.7598 -106.688 -106.672 -106.688c-30.624 0 -58.1436 12.9756 -77.5996 33.6318l-76.5127 -44.6396c3.10449 -10 4.76855 -20.624 4.76855 -31.6484
s-1.66406 -21.6641 -4.76855 -31.6641l76.5127 -44.624c19.4561 20.6562 46.9756 33.6318 77.5996 33.6318z" />
    <glyph glyph-name="uniF124" unicode="&#xf124;" 
d="M56.9121 338.784c-34.1279 0 -56.9121 25.0078 -56.9121 54.6074c0 30.7207 22.7842 54.6084 58.0479 54.6084c35.248 0 56.832 -23.8877 57.9678 -54.6084c0 -29.5996 -22.7197 -54.6074 -59.1035 -54.6074zM3.3916 295.552h109.248v-351.552h-109.248v351.552z
M175.184 295.552h94.416l5.71191 -48.9121h2.25684c13.6797 22.7363 48.96 56.8643 108.128 56.8643c72.7842 0 126.304 -47.7598 126.304 -151.328v-208.176h-109.248v194.528c0 45.5361 -15.9199 76.2393 -55.7598 76.2393
c-29.5518 0 -47.7441 -20.4795 -55.7119 -40.9756c-3.45605 -6.81641 -3.45605 -17.0723 -3.45605 -27.2959v-202.496h-110.32v238.912c0 44.3682 -1.18359 80.7842 -2.32031 112.64z" />
    <glyph glyph-name="multiply" unicode="&#xd7;" 
d="M507.648 409.696l-217.713 -217.696l217.713 -217.696l-33.9521 -33.9521l-217.696 217.713l-217.696 -217.713l-33.9521 33.9521l217.713 217.696l-217.713 217.696l33.9521 33.9521l217.696 -217.713l217.696 217.713z" />
    <glyph glyph-name="uniF12C" unicode="&#xf12c;" 
d="M447.792 -5.66406v-58.1279l-383.904 255.664l383.904 256v-58.4482l-298.784 -197.552z" />
    <glyph glyph-name="uniF12B" unicode="&#xf12b;" 
d="M77.3438 -64v512h357.312v-512h-357.312zM128.672 395.984v-408.656h254.656v408.656h-254.656z" />
    <glyph glyph-name="arrowright" unicode="&#x2192;" 
d="M0 170v48h414.528l-94.624 86.416l32.3838 35.4404l159.712 -145.856l-159.712 -145.856l-32.3838 35.4404l94.624 86.416h-414.528z" />
    <glyph glyph-name="uniF12A" unicode="&#xf12a;" 
d="M453.872 383.904h58.1279l-255.664 -383.904l-256 383.904h58.4482l197.552 -298.784z" />
    <glyph glyph-name="uni2630" unicode="&#x2630;" 
d="M0 408h512v-48h-512v48zM0 280h512v-48h-512v48zM0.12793 154.672l512 -2.65625l-0.255859 -48l-512 2.65625zM0 24h512v-48h-512v48z" />
    <glyph glyph-name="arrowup" unicode="&#x2191;" 
d="M280 -64h-48v414.528l-86.4004 -94.624l-35.4395 32.3838l145.84 159.712l145.84 -159.712l-35.4395 -32.3838l-86.4004 94.624v-414.528z" />
    <glyph glyph-name="uniF127" unicode="&#xf127;" 
d="M512 405.344l0.015625 -426.672h-512.016v429.328l512 -0.288086v-2.36816zM425.92 357.344h-339.584l169.68 -154.271zM48 26.6719h416.016v300.432l-208.031 -188.863l-207.984 189.056v-300.624z" />
    <glyph glyph-name="uniF121" unicode="&#xf121;" 
d="M324.896 357.584c-10.2402 0 -20.4004 -12.4639 -20.4004 -29.4717v-57.7764h100.848v-83.8721h-100.863v-250.464h-96.3525v250.448h-86.1123v83.8721h86.1123v48.7197c0 70.2559 49.8877 126.928 116.769 126.928h80.4316v-88.3838h-80.4316z" />
    <glyph glyph-name="arrowdown" unicode="&#x2193;" 
d="M232 448h48v-414.528l86.4004 94.624l35.4395 -32.3838l-145.84 -159.712l-145.84 159.712l35.4395 32.3838l86.4004 -94.624v414.528z" />
    <glyph glyph-name="uniF12F" unicode="&#xf12f;" 
d="M469.328 320h42.6719v-341.328h-426.672v42.6562h-42.6719v42.6719h-42.6562v341.328h426.672v-42.6719h42.6562v-42.6562zM32 373.328v-277.328h362.672v277.328h-362.672zM74.6562 64v-10.6719h362.672v277.328h-10.6562v-266.656h-352.016zM480 10.6719v277.328
h-10.6719v-266.672h-352v-10.6562h362.672z" />
    <glyph glyph-name="u1F50D" unicode="&#x1f50d;" 
d="M512 -30.0645l-33.9355 -33.9355l-168.448 168.448c-32.5283 -25.2646 -73.2646 -40.4482 -117.632 -40.4482c-106.017 0 -191.984 85.9678 -191.984 192c0 106.048 85.9678 192.016 191.984 192.016c106.063 0 192.016 -85.9678 192.016 -192.016
c0 -44.3516 -15.1836 -85.0879 -40.4482 -117.616zM191.984 112c79.4072 0 144.016 64.5918 144.016 144s-64.6084 144.016 -144.016 144.016c-79.3926 0 -143.984 -64.6074 -143.984 -144.016s64.5918 -144 143.984 -144z" />
    <glyph glyph-name="arrowleft" unicode="&#x2190;" 
d="M512 216v-48h-414.528l94.624 -86.416l-32.3838 -35.4404l-159.712 145.856l159.712 145.856l32.3838 -35.4404l-94.624 -86.416h414.528z" />
    <glyph glyph-name="uniF130" unicode="&#xf130;" 
d="M85.3438 25.3438c0 47.1201 38.208 85.3281 85.3281 85.3281v-170.672c-47.1201 0 -85.3281 38.208 -85.3281 85.3438zM341.328 110.672c47.1201 0 85.3281 -38.208 85.3281 -85.3438c0 -47.1201 -38.208 -85.3281 -85.3281 -85.3281v170.672zM256 444
c130.864 0 237.328 -106.464 237.328 -237.328v-138.672h-48v138.672c0 104.384 -84.9443 189.328 -189.328 189.328s-189.328 -84.9443 -189.328 -189.328v-138.672h-48v138.672c0 130.864 106.464 237.328 237.328 237.328z" />
    <glyph glyph-name="uniF126" unicode="&#xf126;" 
d="M430.576 56.752h0.015625v32.9922c0 12.3359 -3.18359 21.7275 -9.55176 28.2881c-6.36816 6.49609 -15.4717 9.79199 -27.3281 9.79199c-11.5996 0 -20.9922 -3.52051 -28.3203 -10.5605c-7.35938 -7.10352 -11.0234 -16.3037 -11.0234 -27.5195v-58.0957
c0 -12.5127 3.3916 -22.3369 10.0156 -29.376c6.65625 -7.12012 15.8086 -10.6729 27.376 -10.6729c12.8799 0 22.624 3.29688 29.0244 9.98438c6.55957 6.76758 9.79199 16.7197 9.79199 30.0645v6.60742h-26.6562v-5.8877
c0 -7.64844 -0.879883 -12.5439 -2.57617 -14.7998c-1.72754 -2.22461 -4.65527 -3.3125 -8.97559 -3.3125c-4.16016 0 -7.08789 1.28027 -8.7998 3.9043c-1.68066 2.67188 -2.5127 7.35938 -2.5127 14.208v24.3838h49.5205zM340.816 21.8242h-0.0166016v71.8555
c0 10.624 -2.12793 18.7207 -6.46387 24.2246c-4.33594 5.53613 -10.5918 8.25586 -18.752 8.25586c-4.01562 0 -8 -0.992188 -11.9678 -3.08789c-3.85645 -2.0166 -7.56836 -5.04004 -11.0566 -8.97656v56.5439h-26.1592v-175.487h26.1592v9.8877
c3.37598 -3.98438 7.10449 -6.87988 11.04 -8.76758c3.95215 -1.85645 8.44824 -2.81641 13.5527 -2.81641c7.64746 0 13.5674 2.40039 17.5674 7.31152c4.09668 4.89648 6.09668 11.9209 6.09668 21.0566zM246.928 -4.86426v129.488h-25.8721v-98.3682
c-2.46387 -2.81543 -5.07129 -5.15234 -8.06348 -6.97559c-2.89648 -1.80859 -5.32812 -2.68848 -7.16797 -2.68848c-2.41602 0 -4.22461 0.640625 -5.3125 2.04785c-1.05566 1.36035 -1.64746 3.58398 -1.64746 6.64062v99.3438h-25.8564v-108.256
c0 -7.75977 1.53613 -13.5205 4.54395 -17.376c3.05664 -3.85645 7.52051 -5.77637 13.5205 -5.77637c4.84766 0 9.87207 1.2959 15.0713 4.14453c5.13672 2.71973 10.1123 6.7041 14.9121 11.9512v-14.1758h25.8721zM161.648 145.072v25.5674h-89.5205v-25.5674h30.1758
v-149.937h29.1523v149.937h30.1924zM418.112 203.6c51.5674 0 93.4072 -41.9199 93.4072 -93.5039v-75.0713c0 -51.6162 -41.8232 -93.4727 -93.4072 -93.4727h-324.656c-51.6797 0 -93.4561 41.8564 -93.4561 93.4727v75.0713c0 51.584 41.7764 93.5039 93.4561 93.5039
h324.656zM392.576 105.152c3.95215 0 6.87988 -1.16797 8.63965 -3.61621c1.80859 -2.25586 2.71973 -6.1123 2.71973 -11.5684v-13.0879h-22.8799v13.0879c0 5.45605 0.864258 9.3125 2.65625 11.5684c1.77637 2.44824 4.75195 3.61621 8.86426 3.61621zM303.36 105.584
c-1.84082 0 -3.68066 -0.383789 -5.48828 -1.21582c-1.82422 -0.832031 -3.59961 -2.20801 -5.32812 -3.98438v-80.6562c2.06445 -2.0957 4.12793 -3.66309 6.12793 -4.5918c2 -0.879883 4.03223 -1.4082 6.24023 -1.4082c3.18359 0 5.50391 0.912109 7.00781 2.78418
c1.45605 1.80859 2.24023 4.76855 2.24023 8.92871v66.8633c0 4.38477 -0.879883 7.68066 -2.71973 9.93652c-1.9209 2.22363 -4.57617 3.34375 -8.08008 3.34375zM135.952 248.544v76.624l-39.0879 116.72h33.04l21.3281 -77.2793h2.0791l20.3047 77.2793h33.2959
l-38.1758 -113.136v-80.208h-32.7842zM239.264 359.648v-77.6963c0 -3.8877 1.04004 -6.87988 3.07227 -9.07227c2.08008 -2.17578 5.08789 -3.2002 8.92773 -3.2002c3.93652 0 7.07227 1.07227 9.39258 3.26465c2.33594 2.19141 3.53613 5.19922 3.53613 9.00781v77.6963
c0 3.11914 -1.2168 5.63184 -3.56836 7.59961c-2.36816 1.8877 -5.52051 2.83203 -9.36035 2.83203c-3.56738 0 -6.43164 -0.944336 -8.7041 -2.83203c-2.17578 -1.96777 -3.2959 -4.49609 -3.2959 -7.59961zM251.344 244.944c-12.7354 0 -22.9434 3.59961 -30.5918 10.7676
c-7.61621 7.23242 -11.4404 16.8164 -11.4404 28.9443v73.9033c0 11.0889 3.9043 19.8564 11.7285 26.4326c7.83984 6.51172 18.4316 9.77539 31.6162 9.77539c12.0635 0 21.9678 -3.47168 29.6797 -10.3359c7.67969 -6.84766 11.5205 -15.8232 11.5205 -26.6719v-73.6797
c0 -12.2402 -3.79199 -21.7285 -11.2803 -28.7041c-7.58398 -6.95996 -17.9844 -10.4316 -31.2324 -10.4316zM337.808 246.48c5.52051 0 11.1201 1.53516 16.9287 4.52734c5.82324 3.05664 11.4072 7.52051 16.7832 13.3438v-15.8076h29.1201v142.64h-29.1201v-108.271
c-2.75195 -3.13574 -5.72754 -5.66406 -8.99121 -7.69629c-3.3125 -1.96777 -6 -2.99219 -8.17676 -2.99219c-2.70312 0 -4.75195 0.768555 -5.8877 2.32031c-1.23145 1.48828 -1.87207 3.93652 -1.87207 7.26367v109.376h-29.1035v-119.231
c0 -8.48047 1.67969 -14.8486 5.12012 -19.04c3.42383 -4.27246 8.44727 -6.43164 15.1992 -6.43164z" />
    <glyph glyph-name="uniF117" unicode="&#xf117;" 
d="M192 277.376l256 170.672v-512l-256 170.672h-128v170.656h128z" />
    <glyph glyph-name="uniF12D" unicode="&#xf12d;" 
d="M64.2236 389.552v58.1123l383.904 -255.664l-383.904 -256v58.4482l298.784 197.552z" />
  </font>
</defs>
</svg>
