<?xml version="1.0" encoding="utf-8"?>
<!-- Generator: Adobe Illustrator 19.2.1, SVG Export Plug-In . SVG Version: 6.00 Build 0)  -->
<!DOCTYPE svg PUBLIC "-//W3C//DTD SVG 1.1//EN" "http://www.w3.org/Graphics/SVG/1.1/DTD/svg11.dtd">
<svg version="1.1" id="Layer_1" xmlns="http://www.w3.org/2000/svg" xmlns:xlink="http://www.w3.org/1999/xlink" x="0px" y="0px"
	 width="36px" height="27px" viewBox="0 0 36 27" style="enable-background:new 0 0 36 27;" xml:space="preserve">
<title>camera</title>
<path style="fill:currentColor" d="M33.8,4.5h-4.5c0,0-1.2,0-2.2-2.2C26.5,1.1,26,0,24.8,0h-9c-1.2,0-1.8,1.1-2.2,2.2c-0.9,2.2-2.2,2.2-2.2,2.2H9
	c0-1.2-1-2.2-2.2-2.2H4.5c-1.2,0-2.2,1-2.2,2.2C1,4.5,0,5.5,0,6.8v18C0,26,1,27,2.2,27h31.5c1.2,0,2.2-1,2.2-2.2v-18
	C36,5.5,35,4.5,33.8,4.5z M7.7,9.5H3.6c-0.7,0-1.3-0.6-1.3-1.4c0-0.7,0.6-1.3,1.3-1.3h4.1C8.4,6.8,9,7.4,9,8.1
	C9,8.8,8.4,9.4,7.7,9.5z M20.2,23.3c-4.4,0-8-3.6-8-8s3.6-8,8-8s8,3.6,8,8S24.7,23.3,20.2,23.3z"/>
</svg>
