<svg id="Layer_1" data-name="Layer 1" xmlns="http://www.w3.org/2000/svg" xmlns:xlink="http://www.w3.org/1999/xlink" viewBox="0 0 48 45.73"><defs><style>.cls-1{fill:none;}.cls-2{clip-path:url(#clip-path);}</style><clipPath id="clip-path"><rect class="cls-1" width="48" height="45.73"/></clipPath></defs><title>Artboard 1</title><g class="cls-2"><path d="M42.93,45.73,27.33,30h0c.27-.13.4-.4.67-.53a1.61,1.61,0,0,0,.67-.67,13.13,13.13,0,0,0,3.2-4.93,16.66,16.66,0,0,0,1.07-5.6,16.66,16.66,0,0,0-1.07-5.6,15,15,0,0,0-3.2-4.93,13.13,13.13,0,0,0-4.93-3.2,16.66,16.66,0,0,0-5.6-1.07,16.66,16.66,0,0,0-5.6,1.07,18.18,18.18,0,0,0-4.67,3.2,17.87,17.87,0,0,0-3.33,4.93,16.66,16.66,0,0,0-1.07,5.6,16.66,16.66,0,0,0,1.07,5.6,15,15,0,0,0,3.2,4.93,14.26,14.26,0,0,0,6.53,3.87,15.2,15.2,0,0,0,7.33.13l2.8,2.8a20.34,20.34,0,0,1-4.93,1.07,16,16,0,0,1-5.07-.4,18.68,18.68,0,0,1-4.8-1.73A20.47,20.47,0,0,1,5.33,31.2a18.21,18.21,0,0,1-4-6A17.64,17.64,0,0,1,0,18.4a17.82,17.82,0,0,1,1.33-6.93,17.47,17.47,0,0,1,4-6.13,19.69,19.69,0,0,1,6-4A17.82,17.82,0,0,1,18.27,0a16.73,16.73,0,0,1,6.8,1.33,18.21,18.21,0,0,1,6,4,16.94,16.94,0,0,1,3.87,5.6,18.61,18.61,0,0,1,1.47,6.53A18.06,18.06,0,0,1,35.47,24a17.16,17.16,0,0,1-3.33,5.87L48,45.73Z"/></g></svg>