<svg xmlns="http://www.w3.org/2000/svg" viewBox="0 0 36 34.3"><path d="M32.2 34.3L20.5 22.5c.2-.1.3-.3.5-.4s.4-.3.5-.5c1.1-1.1 1.9-2.3 2.4-3.7.5-1.4.8-2.8.8-4.2 0-1.4-.3-2.8-.8-4.2-.5-1.4-1.4-2.6-2.4-3.7-1.1-1.1-2.3-1.9-3.7-2.4-1.4-.5-2.8-.8-4.2-.8-1.4 0-2.8.3-4.2.8-1.2.6-2.5 1.4-3.5 2.4S4 8.2 3.4 9.5c-.5 1.4-.8 2.8-.8 4.2 0 1.4.3 2.8.8 4.2.5 1.4 1.4 2.6 2.4 3.7 1.4 1.4 3 2.4 4.9 2.9 1.9.5 3.7.5 5.5.1l2.1 2.1c-1.2.4-2.4.7-3.7.8-1.3.1-2.6 0-3.8-.3-1.3-.3-2.5-.7-3.6-1.3C6 25.2 5 24.4 4 23.4c-1.3-1.3-2.3-2.8-3-4.5-.7-1.7-1-3.4-1-5.1 0-1.8.3-3.5 1-5.2.7-1.8 1.7-3.3 3-4.6 1.3-1.3 2.9-2.3 4.5-3 1.7-.7 3.4-1 5.2-1 1.8 0 3.5.3 5.1 1 1.7.7 3.2 1.7 4.5 3 1.3 1.3 2.3 2.7 2.9 4.2.7 1.6 1 3.2 1.1 4.9.1 1.7-.2 3.3-.7 4.9-.5 1.6-1.4 3.1-2.5 4.4L36 34.3h-3.8z"/></svg>
