<?xml version="1.0" encoding="utf-8"?>
<!-- Generator: Adobe Illustrator 19.2.1, SVG Export Plug-In . SVG Version: 6.00 Build 0)  -->
<!DOCTYPE svg PUBLIC "-//W3C//DTD SVG 1.1//EN" "http://www.w3.org/Graphics/SVG/1.1/DTD/svg11.dtd">
<svg version="1.1" id="Layer_1" xmlns="http://www.w3.org/2000/svg" xmlns:xlink="http://www.w3.org/1999/xlink" x="0px" y="0px"
	 width="16px" height="16px" viewBox="0 0 16 16" style="enable-background:new 0 0 16 16;" xml:space="preserve">
<title>pinterest</title>
<path class="st0" d="M5.6,15.6c0.4-0.7,0.8-1.4,1-2.1l0.5-1.8c0.4,0.6,1.1,0.9,1.8,0.9c2.4,0,4.2-2.3,4.1-5c0-0.1,0-0.2,0-0.2
	c0,0,0,0,0,0C13,4.8,10.8,2.8,8.2,3C4.7,3,2.9,5.3,2.9,7.8c0,1.2,0.6,2.4,1.6,3.1c0.2,0.1,0.3,0,0.3-0.1L5,9.9c0-0.1,0-0.2,0-0.2
	C4.6,9.1,4.4,8.5,4.4,7.8c0,0,0-0.2,0-0.2c0,0,0,0,0,0C4.5,5.8,6.1,4.3,8,4.4h0.3c0,0,0,0,0,0c1.7,0.1,3.1,1.5,3,3.3
	c0,2.2-1.1,3.7-2.5,3.7c-0.1,0-0.2,0-0.3,0c-0.6-0.2-1-0.8-0.8-1.4C7.9,9,8.1,8.1,8.3,7.2c0-0.1,0-0.1,0-0.2c0-0.6-0.5-1-1-1
	c0,0,0,0,0,0C6.3,6.2,5.7,7.1,5.8,8c0,0.4,0.1,0.8,0.2,1.2l-1,4c-0.1,0.8-0.1,1.5,0,2.3C2,14.2,0,11.3,0,8c0-4.4,3.6-8,8-8
	c0.8,0,1.6,0.1,2.4,0.4c4.2,1.3,6.6,5.8,5.3,10S9.9,16.9,5.6,15.6z" style="fill: currentColor"/>
</svg>
