<svg id="Layer_1" data-name="Layer 1" xmlns="http://www.w3.org/2000/svg" viewBox="0 0 20 19.51">
  <title>github</title>
  <path d="M10,0A10,10,0,0,0,6.84,19.49,0.5,0.5,0,0,0,7.52,19c0-.24,0-0.87,0-1.7C4.73,17.91,4.14,16,4.14,16A2.65,2.65,0,0,0,3,14.5c-0.91-.62.07-0.61,0.07-0.61a2.1,2.1,0,0,1,1.53,1,2.13,2.13,0,0,0,2.91.83,2.14,2.14,0,0,1,.63-1.34C6,14.17,3.62,13.31,3.62,9.48a3.87,3.87,0,0,1,1-2.68,3.6,3.6,0,0,1,.1-2.65s0.84-.27,2.75,1a9.48,9.48,0,0,1,5,0c1.91-1.29,2.75-1,2.75-1a3.59,3.59,0,0,1,.1,2.65,3.86,3.86,0,0,1,1,2.68c0,3.84-2.34,4.69-4.57,4.93a2.39,2.39,0,0,1,.68,1.85c0,1.34,0,2.42,0,2.74a0.5,0.5,0,0,0,.69.48A10,10,0,0,0,10,0Z" style="fill: currentColor;fill-rule: evenodd"/>
</svg>
