<?xml version="1.0" encoding="utf-8"?>
<!-- Generator: Adobe Illustrator 19.2.1, SVG Export Plug-In . SVG Version: 6.00 Build 0)  -->
<!DOCTYPE svg PUBLIC "-//W3C//DTD SVG 1.1//EN" "http://www.w3.org/Graphics/SVG/1.1/DTD/svg11.dtd">
<svg version="1.1" id="Layer_1" xmlns="http://www.w3.org/2000/svg" xmlns:xlink="http://www.w3.org/1999/xlink" x="0px" y="0px"
	 width="36px" height="36px" viewBox="0 0 36 36" style="enable-background:new 0 0 36 36;" xml:space="preserve">
<title>linkedin</title>
<path class="st0" d="M33.3,0C33.3,0,33.3,0,33.3,0H2.7C1.2,0,0,1.1,0,2.6c0,0,0,0,0,0v30.8C0,34.9,1.2,36,2.7,36c0,0,0,0,0,0h30.7
	c1.5,0,2.6-1.1,2.7-2.6c0,0,0,0,0,0V2.6C36,1.1,34.8,0,33.3,0z M10.7,30.7H5.3V13.5h5.3V30.7z M8,11.2c-1.7,0-3.1-1.4-3.1-3.1
	C4.9,6.4,6.3,5,8,5s3.1,1.4,3.1,3.1C11.1,9.8,9.7,11.2,8,11.2z M30.6,30.7h-5.3v-8.4c0-2,0-4.6-2.8-4.6s-3.2,2.2-3.2,4.4v8.5H14
	V13.5h5.1v2.3h0.1c1-1.8,3-2.8,5-2.8c5.4,0,6.4,3.6,6.4,8.2V30.7z" style="fill:currentColor"/>
</svg>
