<svg id="WhatsApp_Logo" data-name="WhatsApp Logo" xmlns="http://www.w3.org/2000/svg" viewBox="0 0 418.85 420.87">
  <title>whatsapp</title>
  <g id="WA_Logo" data-name="WA Logo">
    <path d="M357.84,61.16A207.2,207.2,0,0,0,210.31,0C95.31,0,1.8,93.55,1.75,208.54A208.18,208.18,0,0,0,29.59,312.8L0,420.87l110.56-29a208.37,208.37,0,0,0,99.65,25.38h0.09c114.94,0,208.51-93.56,208.55-208.55A207.29,207.29,0,0,0,357.84,61.16ZM210.31,382h-0.1A173.08,173.08,0,0,1,122,357.87l-6.33-3.76L50,371.32l17.51-64-4.12-6.56A172.93,172.93,0,0,1,37,208.58C37,113,114.76,35.25,210.38,35.25A173.37,173.37,0,0,1,383.65,208.69C383.61,304.27,305.85,382,210.31,382Zm95.08-129.82c-5.21-2.61-30.83-15.21-35.61-17s-8.25-2.61-11.72,2.61-13.46,17-16.5,20.43-6.08,3.91-11.29,1.3-22-8.11-41.91-25.86c-15.49-13.82-26-30.88-29-36.1s-0.32-8,2.28-10.63c2.34-2.34,5.21-6.09,7.82-9.13s3.47-5.22,5.21-8.69,0.87-6.52-.43-9.13-11.71-28.22-16-38.66c-4.23-10.16-8.53-8.78-11.72-9-3-.15-6.51-0.18-10-0.18a19.14,19.14,0,0,0-13.9,6.52c-4.78,5.22-18.24,17.83-18.24,43.47s18.67,50.43,21.28,53.91,36.75,56.11,89,78.69a299.33,299.33,0,0,0,29.71,11c12.48,4,23.84,3.41,32.82,2.07,10-1.5,30.83-12.61,35.17-24.78s4.34-22.61,3-24.78S310.6,254.82,305.39,252.21Z" transform="translate(0 0)" style="fill: currentColor"/>
  </g>
</svg>
