<svg id="Layer_1" data-name="Layer 1" xmlns="http://www.w3.org/2000/svg" viewBox="0 0 36.05 31">
  <title>avatar</title>
  <path d="M18,0A18,18,0,0,0,5.55,31q0-.91.06-1.78a17.88,17.88,0,0,1,.25-1.93,14.89,14.89,0,0,1,.47-1.92,9.11,9.11,0,0,1,.76-1.73,6.24,6.24,0,0,1,1.1-1.43,4.62,4.62,0,0,1,1.51-1,5.31,5.31,0,0,1,2-.35,2.17,2.17,0,0,1,.74.38l1.32,0.85a8.35,8.35,0,0,0,1.91.85,7.53,7.53,0,0,0,4.73,0,8.35,8.35,0,0,0,1.91-.85l1.32-.85a2.17,2.17,0,0,1,.74-0.38,5.31,5.31,0,0,1,2,.35,4.63,4.63,0,0,1,1.51,1A6.25,6.25,0,0,1,29,23.64a9.09,9.09,0,0,1,.76,1.73,15,15,0,0,1,.47,1.92,18,18,0,0,1,.25,1.93q0.06,0.86.06,1.76A18,18,0,0,0,18,0Zm4.82,20A6.55,6.55,0,0,1,18,22a6.8,6.8,0,0,1-6.8-6.8h0a6.8,6.8,0,0,1,13.6,0A6.55,6.55,0,0,1,22.82,20Z" transform="translate(0 0)"/>
</svg>
