<svg id="Layer_1" data-name="Layer 1" xmlns="http://www.w3.org/2000/svg" viewBox="0 0 36 27">
  <title>camera</title>
  <path d="M33.75,4.5h-4.5S28,4.5,27,2.25C26.52,1.1,26,0,24.75,0h-9C14.51,0,14,1.1,13.5,2.25,12.59,4.5,11.25,4.5,11.25,4.5H9A2.25,2.25,0,0,0,6.75,2.25H4.5A2.25,2.25,0,0,0,2.25,4.5,2.25,2.25,0,0,0,0,6.75v18A2.25,2.25,0,0,0,2.25,27h31.5A2.25,2.25,0,0,0,36,24.75v-18A2.25,2.25,0,0,0,33.75,4.5Z"/>
  <circle cx="20.25" cy="15.31" r="7.98" style="fill: #fff"/>
  <circle cx="20.25" cy="15.31" r="4.54"/>
  <path d="M2.25,8.1A1.35,1.35,0,0,0,3.6,9.45H7.65a1.35,1.35,0,0,0,0-2.7H3.6A1.35,1.35,0,0,0,2.25,8.1h0Z" style="fill: #fff"/>
</svg>
