<svg id="Default_g_icon" data-name="Default g icon" xmlns="http://www.w3.org/2000/svg" viewBox="0 0 339.53 342.08">
  <title>g+</title>
  <g id="g_" data-name="g ">
    <g id="g">
      <path d="M197.59,18H170.65C181.1,26.53,201.81,43,201.81,77c0,33.12-19.09,48.83-38.18,63.58-5.91,5.81-12.73,12.1-12.73,22s6.81,15.21,11.81,19.26l16.38,12.51c20,16.58,38.17,31.82,38.17,62.72,0,42.09-42.67,85-120.84,85C30.51,342,0,310.79,0,277.64c0-16.13,8.16-39,35-54.64,28.16-17,66.36-19.24,86.81-20.61-6.38-8.06-13.64-16.56-13.64-30.44,0-7.61,2.29-12.1,4.55-17.47-5,.44-10,0.89-14.55.89C50,155.37,22.69,120,22.69,85.08c0-20.6,6.41-44.94,25.94-61.49C74.55,2.59,107.63,0,132.22,0H227L197.55,18h0ZM79,222.12c-10,3.58-39.08,14.32-39.08,46.12s31.37,54.65,80,54.65c43.62,0,66.83-20.64,66.83-48.36,0-22.88-15-34.93-49.57-59.13a72.6,72.6,0,0,0-10.42-.46c-4.1,0-28.66.9-47.75,7.18h0ZM104.56,16.33C92.73,16.33,80,21,72.72,30c-7.72,9.41-10,22.61-10,34.26,0,30,17.73,79.71,56.83,79.71,11.36,0,23.61-6.49,30.9-13.66C160.9,120,161.8,106.79,161.8,98.73c0-32.25-19.54-82.4-57.25-82.4h0Z" transform="translate(0.03 -0.01)" style="fill: #cd3c28"/>
    </g>
  </g>
  <polygon points="339.53 151.5 295.03 151.5 295.03 107.01 272.03 107.01 272.03 151.5 227.54 151.5 227.54 174.5 272.03 174.5 272.03 219 295.03 219 295.03 174.5 339.53 174.5 339.53 151.5" style="fill: #cd3c28"/>
</svg>
