<svg id="Default_g_icon" data-name="Default g+ icon" xmlns="http://www.w3.org/2000/svg" viewBox="0 0 339.5 342.01"><defs><style>.cls-1{fill:#cd3c28;}</style></defs><title>google_g</title><g id="g_" data-name="g+"><g id="g"><path class="cls-1" d="M287.62,103.06H260.68c10.45,8.51,31.16,24.95,31.16,59,0,33.12-19.09,48.83-38.18,63.58-5.91,5.81-12.73,12.1-12.73,22s6.81,15.21,11.81,19.26l16.38,12.51c20,16.58,38.17,31.82,38.17,62.72,0,42.09-42.67,85-120.84,85C120.54,427,90,395.83,90,362.68c0-16.13,8.16-38.95,35-54.64,28.16-17,66.36-19.24,86.81-20.61-6.38-8.06-13.64-16.56-13.64-30.44,0-7.61,2.29-12.1,4.55-17.47-5,.44-10,0.89-14.55.89-48.18,0-75.45-35.39-75.45-70.29,0-20.6,6.41-44.94,25.94-61.49,25.92-21,59-23.58,83.59-23.58l94.76,0-29.43,18h0ZM169.06,307.16c-10,3.58-39.08,14.32-39.08,46.12s31.37,54.65,80,54.65c43.62,0,66.83-20.64,66.83-48.36,0-22.88-15-34.93-49.57-59.13a72.6,72.6,0,0,0-10.42-.46c-4.1,0-28.66.9-47.75,7.18h0Zm25.53-205.79c-11.83,0-24.55,4.7-31.84,13.66-7.72,9.41-10,22.61-10,34.26,0,30,17.73,79.71,56.83,79.71,11.36,0,23.61-6.49,30.9-13.66,10.45-10.32,11.35-23.51,11.35-31.57,0-32.25-19.54-82.4-57.25-82.4h0Z" transform="translate(-90.03 -85.04)"/></g></g><polygon class="cls-1" points="339.5 151.51 295 151.51 295 107.02 272 107.02 272 151.51 227.51 151.51 227.51 174.51 272 174.51 272 219.01 295 219.01 295 174.51 339.5 174.51 339.5 151.51"/></svg>