<svg id="Layer_1" data-name="Layer 1" xmlns="http://www.w3.org/2000/svg" viewBox="0 0 36 31.38"><defs><style>.cls-1{fill:none;stroke:#000;stroke-miterlimit:10;stroke-width:2px;vector-effect:non-scaling-stroke;}</style></defs><title>heart-open</title><path class="cls-1" d="M32.59,3.35A9.13,9.13,0,0,0,25.93,1a7.56,7.56,0,0,0-2.4.41,9.72,9.72,0,0,0-2.28,1.1q-1.05.69-1.81,1.3A17.5,17.5,0,0,0,18,5.1a17.56,17.56,0,0,0-1.44-1.29q-0.76-.61-1.81-1.3a9.72,9.72,0,0,0-2.28-1.1A7.56,7.56,0,0,0,10.07,1,9.13,9.13,0,0,0,3.41,3.35,8.7,8.7,0,0,0,1,9.88a8.31,8.31,0,0,0,.45,2.62,11.47,11.47,0,0,0,1,2.3,16.75,16.75,0,0,0,1.29,1.85q0.72,0.9,1.05,1.24C5,18.11,17.69,30.38,18,30.38s12.63-12,12.63-12Q35,14.07,35,9.88A8.7,8.7,0,0,0,32.59,3.35Z" /></svg>