<?xml version="1.0" encoding="utf-8"?>
<!-- Generator: Adobe Illustrator 19.2.1, SVG Export Plug-In . SVG Version: 6.00 Build 0)  -->
<!DOCTYPE svg PUBLIC "-//W3C//DTD SVG 1.1//EN" "http://www.w3.org/Graphics/SVG/1.1/DTD/svg11.dtd">
<svg version="1.1" id="Layer_1" xmlns="http://www.w3.org/2000/svg" xmlns:xlink="http://www.w3.org/1999/xlink" x="0px" y="0px"
	 width="36px" height="36px" viewBox="0 0 36 36" style="enable-background:new 0 0 36 36;" xml:space="preserve">
<title>help</title>
<path style="fill:currentColor" d="M18,0C8.1,0,0,8.1,0,18s8.1,18,18,18s18-8.1,18-18S27.9,0,18,0z M20.3,29.6h-5v-4.9h5V29.6z M23.1,17.9
	c-1.4,1-2.8,1.8-3.1,3.7v1.2h-4.3v-1.4c0.1-2,1.1-3.9,2.8-5c1.2-1,2.3-1.7,2.3-3.4c0-1.9-1-2.9-2.7-2.9c-2.3,0-3.2,1.9-3.3,4.1h-4.7
	c0,0,0,0,0,0v0h0c0.1-4.5,3.1-7.8,7.7-7.8c6,0,7.9,3.7,7.9,6.1C25.9,14.7,24.9,16.7,23.1,17.9z"/>
</svg>
