<svg id="Layer_1" data-name="Layer 1" xmlns="http://www.w3.org/2000/svg" viewBox="0 0 384 384"><defs><style>.cls-1{fill:#3f729b;}</style></defs><title>instagram</title><path class="cls-1" d="M288.75,433.75q0-153,0-306c0.25-.83.57-1.64,0.75-2.48q6-27.94,33.58-35.33c1.55-.42,3.11-0.79,4.67-1.19h306a17.6,17.6,0,0,0,2.1.7c18.84,3.84,30.68,15.12,35.71,33.62,0.42,1.55.8,3.12,1.2,4.68v306a22.46,22.46,0,0,0-.75,2.48,44.35,44.35,0,0,1-34.3,35.55c-1.32.29-2.63,0.65-3.95,1h-306a14.89,14.89,0,0,0-2.1-.7,44.19,44.19,0,0,1-35.82-34C289.5,436.62,289.11,435.19,288.75,433.75Zm44.4-182.37c-0.06,1.3-.16,2.28-0.16,3.25q0,79.11,0,158.22c0,9.56,6.35,15.64,16.25,15.64q131.41,0,262.83,0c10.43,0,16.42-6.08,16.42-16.6q0-78.17,0-156.35c0-1.33,0-2.66,0-4.11H595.25c8.24,36.5,2.44,70.17-20,100s-53,45.77-90.45,47.21c-31.37,1.2-59.28-8.61-82.42-29.76-34.8-31.81-45.82-71.53-36.26-117.51H333.15Zm221.46,29.51a73.87,73.87,0,0,0-147.74-.47c-0.36,40.67,32.65,73.94,73.63,74.19C521.23,354.86,554.45,321.82,554.62,280.89ZM591.79,133c-7.12,0-14.24,0-21.36,0-9.45.07-15.71,5.9-15.84,15.27q-0.3,21.73,0,43.48c0.13,9.11,6,15,15.13,15.18q21.73,0.32,43.48,0c9.39-.12,15.28-6.41,15.31-15.79q0.05-21.18,0-42.35c0-9.48-6.22-15.7-15.72-15.79C605.78,132.92,598.79,133,591.79,133Z" transform="translate(-288.75 -88.75)"/></svg>