<svg id="Layer_1" data-name="Layer 1" xmlns="http://www.w3.org/2000/svg" viewBox="0 0 22.08 36"><defs><style>.cls-1{fill:#fff;}</style></defs><title>map-pushpin</title><path d="M11,36L8.6,31.07c-2.47-5-4.94-10-7.43-15a11,11,0,1,1,20.88-4.22,13,13,0,0,1-1.47,4.85c-2.79,5.59-5.53,11.2-8.3,16.8Zm0-21.64A4.64,4.64,0,1,0,6.42,9.7,4.62,4.62,0,0,0,11,14.36Z" transform="translate(0 0)"/><path class="cls-1" d="M11,14.36a4.64,4.64,0,1,1,4.65-4.57A4.61,4.61,0,0,1,11,14.36Z" transform="translate(0 0)"/></svg>