<?xml version="1.0" encoding="utf-8"?>
<!-- Generator: Adobe Illustrator 19.2.1, SVG Export Plug-In . SVG Version: 6.00 Build 0)  -->
<!DOCTYPE svg PUBLIC "-//W3C//DTD SVG 1.1//EN" "http://www.w3.org/Graphics/SVG/1.1/DTD/svg11.dtd">
<svg version="1.1" id="Layer_1" xmlns="http://www.w3.org/2000/svg" xmlns:xlink="http://www.w3.org/1999/xlink" x="0px" y="0px"
	 width="22px" height="35.8px" viewBox="0 0 22 35.8" style="enable-background:new 0 0 22 35.8;" xml:space="preserve">
<title>map-pushpin</title>
<path style="fill:currentColor" d="M20.8,6.1c-2.7-5.4-9.3-7.7-14.7-5c-5.4,2.7-7.7,9.3-5,14.7c2.5,5,5,10,7.4,15l2.4,4.9l1.2-2.5c2.8-5.6,5.5-11.2,8.3-16.8
	c0.8-1.5,1.3-3.2,1.5-4.9C22.1,9.8,21.7,7.8,20.8,6.1z M10.9,14.2C10.9,14.2,10.9,14.2,10.9,14.2C10.9,14.2,10.9,14.2,10.9,14.2
	C10.9,14.2,10.9,14.2,10.9,14.2c-0.1,0-0.2,0-0.3,0C8.2,14,6.3,12,6.3,9.5C6.3,7,8.4,4.9,11,4.9c0,0,0,0,0,0c0,0,0,0,0,0
	c2.6,0,4.6,2.1,4.6,4.7C15.6,12.2,13.5,14.2,10.9,14.2z"/>
</svg>
