<svg id="Layer_1" data-name="Layer 1" xmlns="http://www.w3.org/2000/svg" viewBox="0 0 16 16">
  <title>pinterest</title>
  <path d="M8,0a8,8,0,1,0,8,8A8,8,0,0,0,8,0H8Z" style="fill: #fff"/>
  <path d="M8,1.07A6.93,6.93,0,0,0,5.47,14.45a6.64,6.64,0,0,1,0-2L6.31,9A2.5,2.5,0,0,1,6.1,8,1.49,1.49,0,0,1,7.36,6.31h0a0.87,0.87,0,0,1,.88,1,14,14,0,0,1-.57,2.31,1,1,0,0,0,1,1.25c1.23,0,2.18-1.3,2.18-3.17A2.74,2.74,0,0,0,8.22,4.85H8A3,3,0,0,0,4.87,7.72s0,0.09,0,.13a2.7,2.7,0,0,0,.52,1.58,0.21,0.21,0,0,1,0,.2l-0.19.79c0,0.13-.1.15-0.23,0.09a3.11,3.11,0,0,1-1.4-2.68c0-2.19,1.59-4.19,4.58-4.19A4.07,4.07,0,0,1,12.42,7.5s0,0.09,0,.14C12.43,10,10.92,12,8.83,12a1.86,1.86,0,0,1-1.59-.8L6.81,12.8a7.75,7.75,0,0,1-.86,1.82A6.93,6.93,0,1,0,8,1.07Z" style="fill: #bd081c"/>
</svg>
