<?xml version="1.0" encoding="utf-8"?>
<!-- Generator: Adobe Illustrator 20.1.0, SVG Export Plug-In . SVG Version: 6.00 Build 0)  -->
<svg version="1.1" id="Layer_1" xmlns="http://www.w3.org/2000/svg" xmlns:xlink="http://www.w3.org/1999/xlink" x="0px" y="0px"
	 viewBox="0 0 36 34.3" style="enable-background:new 0 0 36 34.3;" xml:space="preserve">
<style type="text/css">
	.st0{clip-path:url(#SVGID_2_);}
</style>
<g>
	<defs>
		<rect id="SVGID_1_" width="36" height="34.3"/>
	</defs>
	<clipPath id="SVGID_2_">
		<use xlink:href="#SVGID_1_"  style="overflow:visible;"/>
	</clipPath>
	<path class="st0" d="M32.2,34.3L20.5,22.5l0,0h0c0.2-0.1,0.3-0.3,0.5-0.4s0.4-0.3,0.5-0.5c1.1-1.1,1.9-2.3,2.4-3.7
		c0.5-1.4,0.8-2.8,0.8-4.2c0-1.4-0.3-2.8-0.8-4.2c-0.5-1.4-1.4-2.6-2.4-3.7c-1.1-1.1-2.3-1.9-3.7-2.4c-1.4-0.5-2.8-0.8-4.2-0.8
		c-1.4,0-2.8,0.3-4.2,0.8C8.2,4,6.9,4.8,5.9,5.8S4,8.2,3.4,9.5c-0.5,1.4-0.8,2.8-0.8,4.2c0,1.4,0.3,2.8,0.8,4.2
		c0.5,1.4,1.4,2.6,2.4,3.7c1.4,1.4,3,2.4,4.9,2.9c1.9,0.5,3.7,0.5,5.5,0.1l2.1,2.1c-1.2,0.4-2.4,0.7-3.7,0.8c-1.3,0.1-2.6,0-3.8-0.3
		c-1.3-0.3-2.5-0.7-3.6-1.3C6,25.2,5,24.4,4,23.4c-1.3-1.3-2.3-2.8-3-4.5c-0.7-1.7-1-3.4-1-5.1c0-1.8,0.3-3.5,1-5.2
		C1.7,6.8,2.7,5.3,4,4c1.3-1.3,2.9-2.3,4.5-3c1.7-0.7,3.4-1,5.2-1c1.8,0,3.5,0.3,5.1,1c1.7,0.7,3.2,1.7,4.5,3
		c1.3,1.3,2.3,2.7,2.9,4.2c0.7,1.6,1,3.2,1.1,4.9c0.1,1.7-0.2,3.3-0.7,4.9c-0.5,1.6-1.4,3.1-2.5,4.4L36,34.3H32.2z"/>
</g>
</svg>
