<svg id="Layer_1" data-name="Layer 1" xmlns="http://www.w3.org/2000/svg" viewBox="0 0 8.85 10.99">
  <title>pinterest_p</title>
  <path d="M1.9,10.81a6.64,6.64,0,0,1,0-2L2.74,5.36a2.5,2.5,0,0,1-.21-1A1.49,1.49,0,0,1,3.79,2.67h0a0.87,0.87,0,0,1,.88,1A14,14,0,0,1,4.1,6a1,1,0,0,0,1,1.25c1.23,0,2.18-1.3,2.18-3.17A2.74,2.74,0,0,0,4.65,1.21H4.43A3,3,0,0,0,1.3,4.08s0,0.09,0,.13a2.7,2.7,0,0,0,.52,1.58,0.21,0.21,0,0,1,0,.2l-0.19.79c0,0.13-.1.15-0.23,0.09A3.11,3.11,0,0,1,0,4.19C0,2,1.59,0,4.58,0A4.07,4.07,0,0,1,8.85,3.86s0,0.09,0,.14c0,2.36-1.5,4.36-3.59,4.36a1.86,1.86,0,0,1-1.59-.8L3.24,9.16A7.75,7.75,0,0,1,2.38,11Z" transform="translate(0 0.01)" style="fill: #bd081c"/>
</svg>
