<svg id="Layer_1" data-name="Layer 1" xmlns="http://www.w3.org/2000/svg" viewBox="0 0 360.01 338.36">
  <title>snapchat_2</title>
  <path style="fill: currentColor" d="M182.23,334.63c-0.91,0-1.8,0-2.69-.07h0c-0.57,0-1.16.07-1.76,0.07-20.89,0-34.29-9.48-47.25-18.64-9-6.32-17.4-12.29-27.35-14a88.3,88.3,0,0,0-14.36-1.21A98.21,98.21,0,0,0,68.92,303a43.55,43.55,0,0,1-7.43,1.15c-2,0-4.2-.44-5.15-3.68-0.83-2.81-1.42-5.54-2-8.17-1.48-6.78-2.53-11-5.37-11.39-33.12-5.12-42.61-12.09-44.72-17a6.38,6.38,0,0,1-.51-2.12,3.73,3.73,0,0,1,3.12-3.89c50.92-8.39,73.75-60.43,74.7-62.64l0.08-.18c3.12-6.32,3.73-11.8,1.82-16.29C80,170.5,68.57,166.88,61,164.49c-1.85-.58-3.6-1.14-5-1.68-15.05-6-16.31-12.06-15.72-15.17,1-5.3,8.1-9,13.83-9a9.69,9.69,0,0,1,4.12.82c6.77,3.17,12.88,4.78,18.14,4.78,7.28,0,10.45-3.06,10.84-3.46-0.18-3.45-.41-7-0.65-10.76C85,106,83.16,76,90.78,59,113.61,7.78,162,3.8,176.31,3.8l6.27-.06h0.85c14.33,0,62.84,4,85.68,55.19,7.62,17.08,5.73,47,4.21,71.08l-0.06,1c-0.21,3.35-.41,6.61-0.58,9.72,0.36,0.37,3.29,3.18,9.88,3.44h0c5-.19,10.77-1.79,17.1-4.75a12.9,12.9,0,0,1,5.31-1,16.23,16.23,0,0,1,6.11,1.17h0.11c5.11,1.81,8.46,5.4,8.54,9.14,0.07,3.53-2.63,8.83-15.84,14-1.37.54-3.12,1.09-5,1.68-7.55,2.4-19,6-22.44,14.25-1.91,4.49-1.3,10,1.82,16.29a0.71,0.71,0,0,0,.08.18c1,2.21,23.76,54.24,74.7,62.63a3.74,3.74,0,0,1,3.12,3.89,6.26,6.26,0,0,1-.52,2.13c-2.1,4.91-11.57,11.88-44.71,17-2.71.42-3.76,3.94-5.37,11.34-0.59,2.69-1.18,5.34-2,8.12a4.43,4.43,0,0,1-4.74,3.54h-0.41a41.48,41.48,0,0,1-7.42-.94,98.92,98.92,0,0,0-19.9-2.11,88.4,88.4,0,0,0-14.37,1.21c-9.94,1.66-18.38,7.62-27.32,13.93C216.52,325.18,203.12,334.63,182.23,334.63Z" transform="translate(0.01 0)"/>
</svg>
