<svg id="Layer_1" data-name="Layer 1" xmlns="http://www.w3.org/2000/svg" viewBox="0 0 25.75 25.68">
  <title>linkedin_in</title>
  <path d="M0.42,8.54H5.76V25.72H0.42V8.54ZM3.09,0A3.1,3.1,0,1,1,0,3.14,3.1,3.1,0,0,1,3.09,0h0" transform="translate(0.01 -0.04)" style="fill: currentColor"/>
  <path d="M9.09,8.54h5.12v2.35h0.07a5.61,5.61,0,0,1,5-2.77c5.41,0,6.41,3.56,6.41,8.18v9.42H20.43V17.36c0-2,0-4.56-2.77-4.56s-3.2,2.17-3.2,4.41v8.5H9.09V8.54Z" transform="translate(0.01 -0.04)" style="fill: currentColor"/>
</svg>
