<svg id="Layer_1" data-name="Layer 1" xmlns="http://www.w3.org/2000/svg" viewBox="0 0 282.28 322">
  <title>vine</title>
  <path d="M282.3,160.08a105.69,105.69,0,0,1-23.54,2.76c-40.63,0-71.91-28.37-71.91-77.71,0-24.18,9.35-36.76,22.57-36.76,12.58,0,21,11.29,21,34.18,0,13-3.49,27.28-6.06,35.72,0,0,12.52,21.84,46.75,15.14,7.27-16.14,11.22-37,11.22-55.37,0-49.34-25.15-78-71.26-78-47.4,0-75.13,36.44-75.13,84.48,0,47.6,22.25,88.45,58.94,107.07-15.43,30.86-35.06,58-55.53,78.53-37.15-44.9-70.73-104.81-84.5-221.71H0C25.32,243.06,100.78,305.06,120.73,317c11.29,6.77,21,6.45,31.32.64,16.2-9.21,64.84-57.84,91.8-114.8a181.18,181.18,0,0,0,38.45-4.39V160.08Z" transform="translate(-0.05 -0.04)" style="fill: currentColor"/>
</svg>
