<svg id="Layer_1" data-name="Layer 1" xmlns="http://www.w3.org/2000/svg" viewBox="0 0 384.01 384.03">
  <title>instagram</title>
  <path d="M0,345V39c0.25-.83.57-1.64,0.75-2.48q6-27.94,33.58-35.33C35.88,0.77,37.44.4,39,0H345a17.6,17.6,0,0,0,2.1.7c18.84,3.84,30.68,15.12,35.71,33.62,0.42,1.55.8,3.12,1.2,4.68V345a22.47,22.47,0,0,0-.75,2.48A44.35,44.35,0,0,1,349,383c-1.32.29-2.63,0.65-4,1H39a14.89,14.89,0,0,0-2.1-.7,44.19,44.19,0,0,1-35.82-34C0.75,347.87.36,346.44,0,345ZM44.4,162.63c-0.06,1.3-.16,2.28-0.16,3.25V324.1c0,9.56,6.35,15.64,16.25,15.64H323.32c10.43,0,16.42-6.08,16.42-16.6V162.68H306.5c8.24,36.5,2.44,70.17-20,100s-53,45.77-90.45,47.21c-31.37,1.2-59.28-8.61-82.42-29.76-34.8-31.81-45.82-71.53-36.26-117.51h-33Zm221.46,29.51a73.87,73.87,0,0,0-147.74-.47c-0.36,40.67,32.65,73.94,73.63,74.19,40.73,0.25,74-32.79,74.12-73.72h0ZM303,44.25H281.68c-9.45.07-15.71,5.9-15.84,15.27q-0.3,21.73,0,43.48c0.13,9.11,6,15,15.13,15.18q21.73,0.32,43.48,0c9.39-.12,15.28-6.41,15.31-15.79q0-21.18,0-42.35c0-9.48-6.22-15.7-15.72-15.79C317,44.17,310,44.25,303,44.25Z" transform="translate(0 0)" style="fill: #3f729b"/>
</svg>
