<svg id="Layer_1" data-name="Layer 1" xmlns="http://www.w3.org/2000/svg" viewBox="0 0 86.72 75"><defs><style>.cls-1{fill:#1ab7ea;}</style></defs><title>vimeo</title><path class="cls-1" d="M101.68,39.35Q101.1,52,84,74,66.31,97,54.07,97q-7.58,0-12.83-14l-7-25.66q-3.89-14-8.36-14-1,0-6.81,4.08L15,42.17q6.42-5.64,12.65-11.28,8.56-7.4,12.85-7.79,10.12-1,12.46,13.84,2.53,16,3.51,19.87,2.92,13.26,6.43,13.25,2.72,0,8.18-8.6t5.84-13.09q0.78-7.42-5.84-7.43a16.26,16.26,0,0,0-6.42,1.42Q71,21.43,89.08,22,102.44,22.41,101.68,39.35Z" transform="translate(-15 -22)"/></svg>