<svg id="Layer_1" data-name="Layer 1" xmlns="http://www.w3.org/2000/svg" viewBox="0 0 86.72 75.02">
  <title>vimeo</title>
  <path d="M86.68,17.35Q86.1,30,69,52,51.31,75,39.07,75q-7.58,0-12.83-14l-7-25.66q-3.89-14-8.36-14-1,0-6.81,4.08L0,20.17Q6.42,14.53,12.65,8.89,21.21,1.49,25.5,1.1,35.62,0.1,38,14.94q2.53,16,3.51,19.87,2.92,13.26,6.43,13.25,2.72,0,8.18-8.6t5.84-13.09q0.78-7.42-5.84-7.43a16.26,16.26,0,0,0-6.42,1.42Q56-.57,74.08,0,87.44,0.41,86.68,17.35Z" transform="translate(0 0.02)" style="fill: #1ab7ea"/>
</svg>
