<svg id="YouTube_Logo" data-name="YouTube Logo" xmlns="http://www.w3.org/2000/svg" xmlns:xlink="http://www.w3.org/1999/xlink" viewBox="0 0 501.02 209.08"><defs><style>.cls-1{fill:url(#linear-gradient);}.cls-2{fill:#fff;}</style><linearGradient id="linear-gradient" x1="487.98" y1="136" x2="487.98" y2="345.08" gradientUnits="userSpaceOnUse"><stop offset="0" stop-color="#e32e28"/><stop offset="1" stop-color="#be2126"/></linearGradient></defs><title>youtube</title><path id="lozenge" class="cls-1" d="M634.31,181.1s-2.92-20.48-11.87-29.51c-11.35-11.84-24.08-11.9-29.92-12.59C550.73,136,488,136,488,136h-0.13s-62.68,0-104.47,3c-5.84.69-18.56,0.75-29.92,12.59-9,9-11.87,29.51-11.87,29.51a447.55,447.55,0,0,0-3,48.11v22.55a447.53,447.53,0,0,0,3,48.11s2.91,20.48,11.87,29.51c11.36,11.84,26.28,11.46,32.93,12.71,23.89,2.28,101.53,3,101.53,3s62.75-.09,104.53-3.1c5.84-.69,18.57-0.75,29.92-12.59,9-9,11.87-29.51,11.87-29.51a448.11,448.11,0,0,0,3-48.11V229.22A448.13,448.13,0,0,0,634.31,181.1Z" transform="translate(-136.26 -136)"/><g id="You"><path id="u" d="M323.26,305.2h-19v-11c-7.2,8.26-13.31,12.43-20,12.43-5.84,0-9.9-2.75-11.93-7.73-1.23-3-2.11-7.75-2.11-14.69v-80h19v82c0.44,2.81,1.63,3.83,4.05,3.83,3.64,0,6.93-3.16,10.95-8.83v-77h19v101Z" transform="translate(-136.26 -136)"/><path id="o" d="M256.26,237.2c0-10.79-2.17-18.9-6-24-5.06-6.91-13-9.74-21-9.74-9.06,0-15.95,2.83-21,9.74-3.89,5.1-6,13.29-6,24.09l0,35.91c0,10.73,1.86,18.15,5.75,23.2a26.47,26.47,0,0,0,21.25,10.54,26.77,26.77,0,0,0,21.4-10.54c3.83-5.05,5.6-12.47,5.6-23.2v-36Zm-19,38c1,10-2.1,15-8,15s-9-5-8-15v-40c-1-10,2.1-14.69,8-14.69s9,4.69,8,14.69v40Z" transform="translate(-136.26 -136)"/><path id="y" d="M181.26,250.2v55h-20v-55s-20.72-67.43-25-80h21l14,52.68,14-52.68h21Z" transform="translate(-136.26 -136)"/></g><g id="Tube"><path id="e" class="cls-2" d="M612.3,258.2V237.75c0-10.68-2.1-18.49-5.89-23.55-5.07-6.84-12.28-10.46-21.37-10.46-9.24,0-16.45,3.62-21.69,10.46-3.85,5.05-6.09,13.31-6.09,24v35c0,10.62,2.47,18.05,6.31,23.05,5.23,6.83,12.44,10.24,21.91,10.24s16.89-3.58,21.9-10.83a25.78,25.78,0,0,0,4.23-10.85,113.85,113.85,0,0,0,.64-11.78V270.2h-19c0,7.26,0,11.58-.14,12.57-1,4.84-3.63,7.26-8.09,7.26-6.21,0-8.84-4.65-8.78-13.87v-18h36Zm-36-26c0-9.35,2.56-11.89,8.61-11.89s8.39,2.78,8.39,12V243.2l-17,0V232.15Z" transform="translate(-136.26 -136)"/><path id="b" class="cls-2" d="M528.37,203.59c-6.66,0-13.28,4.1-19.13,11.29l0-43.69h-18v134h18l0-10.07c6,7.48,12.64,11.36,19.08,11.36,7.21,0,12.48-3.86,14.89-11.29,1.21-4.24,2-10.76,2-20v-40c0-9.47-1.21-15.94-2.42-20C540.43,207.76,535.58,203.59,528.37,203.59Zm-2.11,72.6c0,10-2.36,13.83-7.58,13.83-3,0-6.42-1.53-9.44-4.56l0-60.65c3-3,6.44-4.56,9.42-4.56,5.22,0,7.58,2.94,7.58,12.94v43Z" transform="translate(-136.26 -136)"/><path id="u-2" data-name="u" class="cls-2" d="M476.26,305.2h-19v-11c-7.2,8.26-13.31,12.43-20,12.43-5.84,0-9.9-2.75-11.93-7.73-1.23-3-2.11-7.75-2.11-14.69v-79h19v81c0.44,2.81,1.63,3.83,4.05,3.83,3.64,0,6.93-3.16,10.95-8.83v-76h19v100Z" transform="translate(-136.26 -136)"/><polygon id="T" class="cls-2" points="268 169.2 248 169.2 248 54.2 227 54.2 227 35.22 290 35.2 290 54.2 268 54.2 268 169.2"/></g></svg>