<svg id="YouTube_Logo" data-name="YouTube Logo" xmlns="http://www.w3.org/2000/svg" viewBox="0 0 501 209.09">
  <title>youtube_2</title>
  <g id="You">
    <path id="u" d="M187,169.2H168v-11c-7.2,8.26-13.31,12.43-20,12.43-5.84,0-9.9-2.75-11.93-7.73-1.23-3-2.11-7.75-2.11-14.69v-80h19v82c0.44,2.81,1.63,3.83,4,3.83,3.64,0,6.93-3.16,11-8.83v-77h19v101h0Z"/>
    <path id="o" d="M120,101.2c0-10.79-2.17-18.9-6-24-5.06-6.91-13-9.74-21-9.74-9.06,0-15.95,2.83-21,9.74-3.89,5.1-6,13.29-6,24.09V137.2c0,10.73,1.86,18.15,5.75,23.2A26.47,26.47,0,0,0,93,170.94a26.77,26.77,0,0,0,21.4-10.54c3.83-5,5.6-12.47,5.6-23.2v-36h0Zm-19,38c1,10-2.1,15-8,15s-9-5-8-15v-40c-1-10,2.1-14.69,8-14.69s9,4.69,8,14.69v40Z"/>
    <path id="y" d="M45,114.2v55H25v-55S4.28,46.77,0,34.2H21L35,86.88,49,34.2H70Z"/>
  </g>
  <g id="Tube">
    <path d="M382.43,84.26c-3,0-6.39,1.57-9.42,4.56v60.65c3,3,6.46,4.56,9.44,4.56,5.22,0,7.58-3.83,7.58-13.83v-43C390,87.2,387.65,84.26,382.43,84.26Z"/>
    <path d="M457,96.28c0-9.24-2.39-12-8.39-12S440,86.83,440,96.17v11.06h17V96.28Z"/>
    <path d="M498.05,45.1s-2.92-20.48-11.87-29.51C474.83,3.75,462.1,3.69,456.26,3,414.47,0,351.74,0,351.74,0h-0.13S288.93,0,247.14,3c-5.84.69-18.56,0.75-29.92,12.59-9,9-11.87,29.51-11.87,29.51a447.54,447.54,0,0,0-3,48.11v22.55a447.53,447.53,0,0,0,3,48.11s2.91,20.48,11.87,29.51c11.36,11.84,26.28,11.46,32.93,12.71,23.89,2.28,101.53,3,101.53,3s62.75-.09,104.53-3.1c5.84-.69,18.57-0.75,29.92-12.59,9-9,11.87-29.51,11.87-29.51a448.11,448.11,0,0,0,3-48.11V93.22A448.14,448.14,0,0,0,498.05,45.1Zm-230,124.09h-20v-115h-21v-19h63v19h-22v115Zm72,0h-19v-11c-7.2,8.26-13.31,12.43-20,12.43-5.84,0-9.9-2.75-11.93-7.73-1.23-3-2.11-7.75-2.11-14.69v-79h19v81c0.44,2.81,1.63,3.83,4,3.83,3.64,0,6.93-3.16,11-8.83v-76h19v100h0Zm69-30c0,9.24-.79,15.76-2,20-2.42,7.43-7.68,11.29-14.89,11.29-6.44,0-13-3.87-19.08-11.36v10.07h-18v-134h18V78.88c5.85-7.2,12.47-11.29,19.13-11.29,7.21,0,12,4.16,14.47,11.65,1.21,4,2.42,10.49,2.42,20v40ZM448.74,154c4.46,0,7-2.42,8.09-7.26,0.17-1,.14-5.3.14-12.57h19V137a113.87,113.87,0,0,1-.64,11.78,25.78,25.78,0,0,1-4.23,10.85c-5,7.26-12.44,10.83-21.9,10.83s-16.68-3.41-21.91-10.24c-3.85-5-6.31-12.43-6.31-23v-35c0-10.68,2.24-18.94,6.09-24,5.24-6.84,12.45-10.46,21.69-10.46,9.08,0,16.29,3.62,21.37,10.46C473.92,83.22,476,91,476,101.72V122.2H440v18C439.94,149.38,442.57,154,448.74,154Z"/>
  </g>
</svg>
