<svg id="YouTube_Logo" data-name="YouTube Logo" xmlns="http://www.w3.org/2000/svg" viewBox="0 0 501 209.09">
  <title>youtube</title>
  <path id="lozenge" d="M498,45.1s-2.92-20.48-11.87-29.51C474.83,3.75,462.1,3.69,456.26,3,414.47,0,351.74,0,351.74,0h-0.13S288.93,0,247.14,3c-5.84.69-18.56,0.75-29.92,12.59-9,9-11.87,29.51-11.87,29.51a447.54,447.54,0,0,0-3,48.11v22.55a447.53,447.53,0,0,0,3,48.11s2.91,20.48,11.87,29.51c11.36,11.84,26.28,11.46,32.93,12.71,23.89,2.28,101.53,3,101.53,3s62.75-.09,104.53-3.1c5.84-.69,18.57-0.75,29.92-12.59,9-9,11.87-29.51,11.87-29.51a448.11,448.11,0,0,0,3-48.11V93.22A448.14,448.14,0,0,0,498,45.1Z" style="fill: #b00"/>
  <g id="You">
    <path id="u" d="M187,169.2H168v-11c-7.2,8.26-13.31,12.43-20,12.43-5.84,0-9.9-2.75-11.93-7.73-1.23-3-2.11-7.75-2.11-14.69v-80h19v82c0.44,2.81,1.63,3.83,4,3.83,3.64,0,6.93-3.16,11-8.83v-77h19v101h0Z"/>
    <path id="o" d="M120,101.2c0-10.79-2.17-18.9-6-24-5.06-6.91-13-9.74-21-9.74-9.06,0-15.95,2.83-21,9.74-3.89,5.1-6,13.29-6,24.09V137.2c0,10.73,1.86,18.15,5.75,23.2A26.47,26.47,0,0,0,93,170.94a26.77,26.77,0,0,0,21.4-10.54c3.83-5,5.6-12.47,5.6-23.2v-36h0Zm-19,38c1,10-2.1,15-8,15s-9-5-8-15v-40c-1-10,2.1-14.69,8-14.69s9,4.69,8,14.69v40Z"/>
    <path id="y" d="M45,114.2v55H25v-55S4.28,46.77,0,34.2H21L35,86.88,49,34.2H70Z"/>
  </g>
  <g id="Tube">
    <path id="e" d="M476,122.2V101.75c0-10.68-2.1-18.49-5.89-23.55-5.07-6.84-12.28-10.46-21.37-10.46S432.29,71.36,427,78.2c-3.85,5.05-6.09,13.31-6.09,24v35c0,10.62,2.47,18,6.31,23,5.23,6.83,12.44,10.24,21.91,10.24s16.89-3.58,21.9-10.83a25.78,25.78,0,0,0,4.23-10.85A113.87,113.87,0,0,0,476,137v-2.8H457c0,7.26,0,11.58-.14,12.57-1,4.84-3.63,7.26-8.09,7.26-6.21,0-8.84-4.65-8.78-13.87v-18h36v0Zm-36-26c0-9.35,2.56-11.89,8.61-11.89s8.39,2.78,8.39,12V107.2H440v-11Z" style="fill: #fff"/>
    <path id="b" d="M392.11,67.59c-6.66,0-13.28,4.1-19.13,11.29V35.19H355v134h18V159.12c6,7.48,12.64,11.36,19.08,11.36,7.21,0,12.48-3.86,14.89-11.29,1.21-4.24,2-10.76,2-20v-40c0-9.47-1.21-15.94-2.42-20C404.17,71.76,399.32,67.59,392.11,67.59ZM390,140.19c0,10-2.36,13.83-7.58,13.83-3,0-6.42-1.53-9.44-4.56V88.81c3-3,6.44-4.56,9.42-4.56,5.22,0,7.58,2.94,7.58,12.94v43h0Z" style="fill: #fff"/>
    <path id="u-2" d="M340,169.2H321v-11c-7.2,8.26-13.31,12.43-20,12.43-5.84,0-9.9-2.75-11.93-7.73-1.23-3-2.11-7.75-2.11-14.69v-79h19v81c0.44,2.81,1.63,3.83,4,3.83,3.64,0,6.93-3.16,11-8.83v-76h19v100h0Z" style="fill: #fff"/>
    <polygon id="T" points="268 169.2 248 169.2 248 54.2 227 54.2 227 35.22 290 35.2 290 54.2 268 54.2 268 169.2" style="fill: #fff"/>
  </g>
</svg>
