<svg id="Layer_1" data-name="Layer 1" xmlns="http://www.w3.org/2000/svg" viewBox="0 0 104.33 80.25">
  <title>ng-2c-rev</title>
  <g>
    <path d="M297.57,401.8v-41h28.61v41H297.57ZM322,397.67V364.93H301.7v32.74H322Z" transform="translate(-259.34 -360.8)" style="fill: #ffcd05"/>
    <g>
      <path d="M282.16,422.36h-1.77c-2.32-3.28-4.63-6.54-6.93-10.23h0v10.23h-2V408.09h1.77c2.32,3.26,4.63,6.5,6.91,10.17h0V408.09h2v14.27Z" transform="translate(-259.34 -360.8)" style="fill: #fff"/>
      <path d="M286.81,416.71c0.57-1.87,1.14-3.61,1.65-5.81h0c0.57,2.2,1.08,3.94,1.61,5.81h-3.3Zm0.94-8.62-4.93,14.27h2.12l1.24-3.89h4.3l1.12,3.89h2.73l-4.55-14.27h-2Z" transform="translate(-259.34 -360.8)" style="fill: #fff"/>
      <path d="M296.63,422.36V410h-3.75v-1.92h9.95V410h-3.75v12.35h-2.45Z" transform="translate(-259.34 -360.8)" style="fill: #fff"/>
      <path d="M303.62,422.36V408.09H306v14.27h-2.42Z" transform="translate(-259.34 -360.8)" style="fill: #fff"/>
      <path d="M313.59,420.57c-2.55,0-3.45-2.81-3.45-5.54s1-5.14,3.45-5.14S317,412.39,317,415,316.14,420.57,313.59,420.57Zm0,2c3.73,0,6.05-3.32,6.05-7.58,0-4-2.57-7.18-6.05-7.18s-6.05,3.18-6.05,7.18C307.54,419.28,309.86,422.61,313.59,422.61Z" transform="translate(-259.34 -360.8)" style="fill: #fff"/>
      <path d="M331.82,422.36H330c-2.32-3.28-4.63-6.54-6.93-10.23h0v10.23h-2V408.09h1.77c2.32,3.26,4.63,6.5,6.91,10.17h0V408.09h2v14.27Z" transform="translate(-259.34 -360.8)" style="fill: #fff"/>
      <path d="M336.46,416.71c0.57-1.87,1.14-3.61,1.65-5.81h0c0.57,2.2,1.08,3.94,1.61,5.81h-3.3Zm0.94-8.62-4.93,14.27h2.12l1.24-3.89h4.3l1.12,3.89H344l-4.55-14.27h-2Z" transform="translate(-259.34 -360.8)" style="fill: #fff"/>
      <path d="M344.7,408.09h2.43v12.36H352v1.91H344.7V408.09Z" transform="translate(-259.34 -360.8)" style="fill: #fff"/>
    </g>
    <g>
      <path d="M270.25,434.29v5.89a11.23,11.23,0,0,1-4.06.88c-4.2,0-6.85-3.26-6.85-7.46,0-3.89,2.65-7.3,6.93-7.3a6.09,6.09,0,0,1,3.46,1.1l-0.79,1.69a5.27,5.27,0,0,0-2.61-.75c-2.61,0-4.38,2.06-4.38,5.3s2,5.38,4.14,5.38a3.57,3.57,0,0,0,1.71-.35v-4.38h2.45Z" transform="translate(-259.34 -360.8)" style="fill: #fff"/>
      <path d="M279,428.46h-4.08v3.91h4v1.92h-4v4.61h4.81v1.91h-7.26V426.54H279v1.92Z" transform="translate(-259.34 -360.8)" style="fill: #fff"/>
      <path d="M286.54,439c-2.55,0-3.44-2.81-3.44-5.54s1-5.14,3.44-5.14,3.45,2.51,3.45,5.14S289.09,439,286.54,439Zm0,2c3.73,0,6.05-3.32,6.05-7.58,0-4-2.57-7.18-6.05-7.18s-6.06,3.18-6.06,7.18C280.48,437.73,282.81,441.06,286.54,441.06Z" transform="translate(-259.34 -360.8)" style="fill: #fff"/>
      <path d="M304.33,434.29v5.89a11.23,11.23,0,0,1-4.06.88c-4.2,0-6.85-3.26-6.85-7.46,0-3.89,2.65-7.3,6.93-7.3a6.09,6.09,0,0,1,3.46,1.1L303,429.09a5.27,5.27,0,0,0-2.61-.75c-2.61,0-4.38,2.06-4.38,5.3s2,5.38,4.14,5.38a3.57,3.57,0,0,0,1.71-.35v-4.38h2.45Z" transform="translate(-259.34 -360.8)" style="fill: #fff"/>
      <path d="M309,428.46h1.08a2.07,2.07,0,0,1,2.26,2.3A2.52,2.52,0,0,1,310,433.6l-1,.06v-5.2Zm6.2,12.35-2.87-5.91a4.8,4.8,0,0,0,2.47-4.24c0-2.77-1.69-4.12-4.42-4.12h-3.81v14.27H309v-5.38h1.1l2.3,5.38h2.79Z" transform="translate(-259.34 -360.8)" style="fill: #fff"/>
      <path d="M319.26,435.17c0.57-1.87,1.14-3.61,1.65-5.81h0c0.57,2.2,1.08,3.94,1.61,5.81h-3.3Zm0.94-8.62-4.93,14.27h2.12l1.24-3.89h4.3l1.12,3.89h2.73l-4.54-14.27h-2Z" transform="translate(-259.34 -360.8)" style="fill: #fff"/>
      <path d="M331.37,426.54h-3.81v14.27H330v-5.38h1.1a4.66,4.66,0,0,0,4.69-4.77C335.79,427.89,334.1,426.54,331.37,426.54ZM331,433.6l-1,.06v-5.2h1.1a2.07,2.07,0,0,1,2.24,2.3A2.52,2.52,0,0,1,331,433.6Z" transform="translate(-259.34 -360.8)" style="fill: #fff"/>
      <path d="M347.12,440.81h-2.45v-6.87H339.6v6.87h-2.43V426.54h2.43V432h5.08v-5.44h2.45v14.23Z" transform="translate(-259.34 -360.8)" style="fill: #fff"/>
      <path d="M349.47,440.81V426.54h2.43v14.27h-2.43Z" transform="translate(-259.34 -360.8)" style="fill: #fff"/>
      <path d="M362.9,429.13a5.16,5.16,0,0,0-2.51-.79c-2.49,0-4.3,2.06-4.3,5.3s2,5.38,4.36,5.38a4.61,4.61,0,0,0,2.45-.71l0.67,1.77a6.21,6.21,0,0,1-3.22,1c-4.2,0-6.85-3.26-6.85-7.46,0-3.89,2.63-7.3,6.89-7.3a6,6,0,0,1,3.28,1.1Z" transform="translate(-259.34 -360.8)" style="fill: #fff"/>
    </g>
  </g>
</svg>
