<svg id="Layer_1" data-name="Layer 1" xmlns="http://www.w3.org/2000/svg" viewBox="0 0 226.35 41.08">
  <title>ng-1fl-rev</title>
  <g>
    <path d="M198.33,421.47V380.39H227v41.08H198.33Zm24.52-4.14v-32.8H202.46v32.8h20.39Z" transform="translate(-198.33 -380.39)" style="fill: #ffcd05"/>
    <g>
      <g>
        <path d="M246,408.16h-1.78c-2.32-3.28-4.63-6.54-6.93-10.23h0v10.23h-2V393.89h1.77c2.32,3.26,4.63,6.5,6.91,10.17h0V393.89h2v14.27Z" transform="translate(-198.33 -380.39)" style="fill: #fff"/>
        <path d="M250.66,402.51c0.57-1.88,1.14-3.61,1.65-5.81h0c0.57,2.2,1.08,3.93,1.61,5.81h-3.3Zm0.94-8.62-4.93,14.27h2.12l1.24-3.89h4.3l1.12,3.89h2.73l-4.55-14.27h-2Z" transform="translate(-198.33 -380.39)" style="fill: #fff"/>
        <path d="M260.49,408.16V395.81h-3.75v-1.92h9.95v1.92h-3.75v12.35h-2.45Z" transform="translate(-198.33 -380.39)" style="fill: #fff"/>
        <path d="M267.48,408.16V393.89h2.43v14.27h-2.43Z" transform="translate(-198.33 -380.39)" style="fill: #fff"/>
        <path d="M277.45,406.36c-2.55,0-3.44-2.81-3.44-5.54s1-5.14,3.44-5.14,3.45,2.51,3.45,5.14S280,406.36,277.45,406.36Zm0,2c3.73,0,6.05-3.32,6.05-7.58,0-4-2.57-7.17-6.05-7.17s-6.05,3.18-6.05,7.17C271.4,405.08,273.72,408.4,277.45,408.4Z" transform="translate(-198.33 -380.39)" style="fill: #fff"/>
        <path d="M295.67,408.16H293.9c-2.32-3.28-4.63-6.54-6.93-10.23h0v10.23h-2V393.89h1.77c2.32,3.26,4.63,6.5,6.91,10.17h0V393.89h2v14.27Z" transform="translate(-198.33 -380.39)" style="fill: #fff"/>
        <path d="M300.32,402.51c0.57-1.88,1.14-3.61,1.65-5.81h0c0.57,2.2,1.08,3.93,1.61,5.81h-3.3Zm0.94-8.62-4.93,14.27h2.12l1.24-3.89H304l1.12,3.89h2.73l-4.55-14.27h-2Z" transform="translate(-198.33 -380.39)" style="fill: #fff"/>
        <path d="M308.56,393.89H311v12.35h4.83v1.92h-7.26V393.89Z" transform="translate(-198.33 -380.39)" style="fill: #fff"/>
      </g>
      <g>
        <path d="M331.26,401.59v5.89a11.21,11.21,0,0,1-4.06.88c-4.2,0-6.85-3.26-6.85-7.46,0-3.89,2.65-7.3,6.93-7.3a6.08,6.08,0,0,1,3.46,1.1l-0.8,1.69a5.29,5.29,0,0,0-2.61-.75c-2.61,0-4.38,2.06-4.38,5.3s2,5.38,4.14,5.38a3.59,3.59,0,0,0,1.71-.35v-4.38h2.45Z" transform="translate(-198.33 -380.39)" style="fill: #fff"/>
        <path d="M340,395.76h-4.08v3.91h4v1.92h-4v4.61h4.81v1.92h-7.26V393.85H340v1.91Z" transform="translate(-198.33 -380.39)" style="fill: #fff"/>
        <path d="M347.55,406.32c-2.55,0-3.45-2.81-3.45-5.54s1-5.14,3.45-5.14,3.45,2.51,3.45,5.14S350.1,406.32,347.55,406.32Zm0,2c3.73,0,6.05-3.32,6.05-7.58,0-4-2.57-7.18-6.05-7.18s-6.05,3.18-6.05,7.18C341.5,405,343.82,408.36,347.55,408.36Z" transform="translate(-198.33 -380.39)" style="fill: #fff"/>
        <path d="M365.35,401.59v5.89a11.22,11.22,0,0,1-4.06.88c-4.2,0-6.85-3.26-6.85-7.46,0-3.89,2.65-7.3,6.93-7.3a6.08,6.08,0,0,1,3.46,1.1L364,396.39a5.28,5.28,0,0,0-2.61-.75c-2.61,0-4.38,2.06-4.38,5.3s2,5.38,4.14,5.38a3.59,3.59,0,0,0,1.71-.35v-4.38h2.45Z" transform="translate(-198.33 -380.39)" style="fill: #fff"/>
        <path d="M370,395.76h1.08a2.07,2.07,0,0,1,2.26,2.3,2.52,2.52,0,0,1-2.32,2.83l-1,.06v-5.2Zm6.2,12.35-2.87-5.91a4.8,4.8,0,0,0,2.47-4.24c0-2.77-1.69-4.12-4.42-4.12h-3.81v14.27H370v-5.38h1.1l2.3,5.38h2.79Z" transform="translate(-198.33 -380.39)" style="fill: #fff"/>
        <path d="M380.27,402.47c0.57-1.87,1.14-3.61,1.65-5.81h0c0.57,2.2,1.08,3.94,1.61,5.81h-3.3Zm0.94-8.62-4.93,14.27h2.12l1.24-3.89h4.3l1.12,3.89h2.73l-4.55-14.27h-2Z" transform="translate(-198.33 -380.39)" style="fill: #fff"/>
        <path d="M392.38,393.85h-3.81v14.27H391v-5.38h1.1A4.66,4.66,0,0,0,396.8,398C396.8,395.19,395.11,393.85,392.38,393.85ZM392,400.9l-1,.06v-5.19h1.1a2.07,2.07,0,0,1,2.24,2.3A2.52,2.52,0,0,1,392,400.9Z" transform="translate(-198.33 -380.39)" style="fill: #fff"/>
        <path d="M408.13,408.12h-2.45v-6.87h-5.08v6.87h-2.43V393.85h2.43v5.48h5.08v-5.44h2.45v14.23Z" transform="translate(-198.33 -380.39)" style="fill: #fff"/>
        <path d="M410.48,408.12V393.85h2.43v14.27h-2.43Z" transform="translate(-198.33 -380.39)" style="fill: #fff"/>
        <path d="M423.91,396.43a5.14,5.14,0,0,0-2.51-.79c-2.49,0-4.3,2.06-4.3,5.3s2,5.38,4.36,5.38a4.61,4.61,0,0,0,2.45-.71l0.67,1.78a6.21,6.21,0,0,1-3.22,1c-4.2,0-6.85-3.26-6.85-7.46,0-3.89,2.63-7.3,6.89-7.3a6,6,0,0,1,3.28,1.1Z" transform="translate(-198.33 -380.39)" style="fill: #fff"/>
      </g>
    </g>
  </g>
</svg>
